<svg width="32.000000" height="32.000000" viewBox="0 0 32 32" fill="none" xmlns="http://www.w3.org/2000/svg" xmlns:xlink="http://www.w3.org/1999/xlink">
	<desc>
			Created with Pixso.
	</desc>
	<defs>
		<clipPath id="clip6_221">
			<rect id="app_store" width="32.000000" height="32.000000" fill="white" fill-opacity="0"/>
		</clipPath>
		<linearGradient id="paint_linear_6_222_0" x1="16.000000" y1="2.000000" x2="16.000000" y2="30.000000" gradientUnits="userSpaceOnUse">
			<stop stop-color="#2AC9FA"/>
			<stop offset="1.000000" stop-color="#1F65EB"/>
		</linearGradient>
	</defs>
	<rect id="app_store" width="32.000000" height="32.000000" fill="#FFFFFF" fill-opacity="0"/>
	<g clip-path="url(#clip6_221)">
		<circle id="bg" cx="16.000000" cy="16.000000" r="14.000000" fill="url(#paint_linear_6_222_0)" fill-opacity="1.000000"/>
		<path id="app_store" d="M18.4468 8.65405C18.7494 8.12598 18.5685 7.45117 18.0428 7.14722C17.5171 6.84326 16.8456 7.0249 16.543 7.55322L16.0153 8.47437L15.4875 7.55322C15.1849 7.0249 14.5134 6.84326 13.9877 7.14722C13.462 7.45117 13.2811 8.12598 13.5837 8.65405L14.748 10.6865L11.0652 17.115L8.09833 17.115C7.4917 17.115 7 17.6089 7 18.2183C7 18.8276 7.4917 19.3218 8.09833 19.3218L18.4324 19.3218C18.523 19.0825 18.6184 18.6721 18.517 18.2949C18.3644 17.728 17.8 17.115 16.8542 17.115L13.5997 17.115L18.4468 8.65405ZM23.9017 19.3218L22.2296 19.3218L23.3892 21.3459C23.6918 21.874 23.5109 22.5488 22.9852 22.8528C22.4594 23.1567 21.788 22.9751 21.4854 22.4468C20.0987 20.0261 18.7118 17.6055 17.3271 15.1838C16.9152 14.4636 16.778 13.728 16.8695 12.8545C16.9407 12.175 17.4118 11.5757 17.6575 11.3411L20.9653 17.115L23.9017 17.115C24.5083 17.115 25 17.6089 25 18.2183C25 18.8276 24.5083 19.3218 23.9017 19.3218ZM11.6364 20.542C11.449 20.3328 11.0292 19.9988 10.661 19.8887C10.0997 19.7212 9.67413 19.8264 9.45941 19.918L8.6413 21.3459C8.33875 21.874 8.51965 22.5488 9.04535 22.8528C9.57104 23.1567 10.2426 22.9751 10.5451 22.4468L11.6364 20.542Z" fill="#FFFFFF" fill-opacity="1.000000" fill-rule="evenodd"/>
	</g>
</svg>
