<svg width="61" height="30" fill="none" xmlns="http://www.w3.org/2000/svg"><path d="M61 22.652V7.348C61 3.286 56.505 0 52.459 0H7.319C3.275 0 0 3.286 0 7.348v15.304C0 26.714 3.274 30 7.32 30h45.139C56.505 30 61 26.714 61 22.652ZM32.845 4.876h-5.824l.45-3.552h14.727l-9.353 3.552Zm-21.04-3.552h13.437l-.45 3.552H14.16l-2.365-3.552h.01Zm35.22 25.527-11.033-2.884V6.043L47.025 3.15s3.92 11.567 0 23.702ZM7.985 3.355l4.328 2.884v17.924l-4.329 2.884V3.355ZM24.14 10.34V21.5h1.74v-14h-1.26q-.21.63-.61.99c-.267.24-.587.413-.96.52-.373.1-.79.15-1.25.15v1.18h2.34Zm-9.56 14.824h10.203l.46 3.55H12.215l2.365-3.55Zm28.018 3.55H27.471l-.46-3.55h6.235l9.352 3.55Z" clip-rule="evenodd" fill="#FFF" fill-rule="evenodd"/></svg>