<svg width="61.000000" height="30.000000" viewBox="0 0 61 30" fill="none" xmlns="http://www.w3.org/2000/svg" xmlns:xlink="http://www.w3.org/1999/xlink">
	<desc>
			Created with Pixso.
	</desc>
	<defs/>
	<path id="Subtract" d="M61 7.3479L61 22.6521C61 26.7136 56.5046 30 52.4588 30L7.31958 30C3.2738 30 0 26.7136 0 22.6521L0 7.3479C0 3.28638 3.2738 0 7.31958 0L52.4588 0C56.5046 0 61 3.28638 61 7.3479ZM27.021 4.87573L32.8454 4.87573L42.1977 1.32446L27.4705 1.32446L27.021 4.87573ZM25.2424 1.32446L11.8052 1.32446L11.7954 1.32446L14.1603 4.87573L24.7928 4.87573L25.2424 1.32446ZM35.9921 23.9666L47.0253 26.8508C50.9441 14.7156 47.0253 3.14917 47.0253 3.14917L35.9921 6.04321L35.9921 23.9666ZM12.3134 6.23926L7.98413 3.35522L7.98413 27.0471L12.3134 24.1628L12.3134 6.23926ZM20.3726 19.4404C20.1242 20.1777 20 21.031 20 22L29 22L29 20.2092L21.9299 20.2092C22.0319 19.6404 22.2357 19.1313 22.5414 18.6819C22.8471 18.2324 23.2261 17.8215 23.6783 17.4495C24.1306 17.0703 24.6306 16.7051 25.1783 16.354Q26.1624 15.7219 27.0032 15.0371C27.5701 14.5808 28.0255 14.054 28.3694 13.4573C28.7134 12.8533 28.8854 12.1194 28.8854 11.2556C28.8854 10.4128 28.7134 9.67212 28.3694 9.03296C28.0319 8.39404 27.5414 7.89526 26.8981 7.53711Q25.9427 7 24.6051 7C23.4968 7 22.551 7.29834 21.7675 7.89526Q21.0845 8.41382 20.6672 9.09521Q20.3724 9.57642 20.2102 10.1392L21.7006 10.8765Q21.9717 9.94971 22.5762 9.37183Q22.6108 9.33887 22.6465 9.30688C23.0923 8.90649 23.7261 8.70654 24.5478 8.70654Q25.4766 8.70654 26.1097 9.13916Q26.2971 9.26733 26.4586 9.43335C26.9299 9.91089 27.1656 10.5042 27.1656 11.2134Q27.1656 11.9297 26.8754 12.4978Q26.8284 12.5896 26.7739 12.6777C26.5191 13.0991 26.1847 13.4817 25.7707 13.8259Q25.1497 14.3315 24.4331 14.7949C23.8854 15.146 23.3471 15.5393 22.8185 15.9746C22.2898 16.4102 21.8121 16.9121 21.3854 17.481Q20.7548 18.3237 20.3726 19.4404ZM24.7831 25.1636L14.5806 25.1636L12.2156 28.7148L25.2424 28.7148L24.7831 25.1636ZM27.4705 28.7148L42.5984 28.7148L33.2461 25.1636L27.0112 25.1636L27.4705 28.7148Z" clip-rule="evenodd" fill="#FFFFFF" fill-opacity="1.000000" fill-rule="evenodd"/>
</svg>
