<svg width="61.000000" height="30.000000" viewBox="0 0 61 30" fill="none" xmlns="http://www.w3.org/2000/svg" xmlns:xlink="http://www.w3.org/1999/xlink">
	<desc>
			Created with Pixso.
	</desc>
	<defs/>
	<path id="Subtract" d="M61 7.3479L61 22.6521C61 26.7136 56.5046 30 52.4588 30L7.31958 30C3.2738 30 0 26.7136 0 22.6521L0 7.3479C0 3.28638 3.2738 0 7.31958 0L52.4588 0C56.5046 0 61 3.28638 61 7.3479ZM27.021 4.87573L32.8454 4.87573L42.1977 1.32446L27.4705 1.32446L27.021 4.87573ZM25.2424 1.32446L11.8052 1.32446L11.7954 1.32446L14.1603 4.87573L24.7928 4.87573L25.2424 1.32446ZM35.9921 23.9666L47.0253 26.8508C50.9441 14.7156 47.0253 3.14917 47.0253 3.14917L35.9921 6.04321L35.9921 23.9666ZM12.3134 6.23926L7.98413 3.35522L7.98413 27.0471L12.3134 24.1628L12.3134 6.23926ZM21.8958 22.0828C22.7361 22.6943 23.7639 23 24.9792 23Q26.4479 23 27.5833 22.4033Q28.3459 21.9951 28.8829 21.3877Q29.1455 21.0906 29.3542 20.7458C29.7847 20.0461 30 19.2432 30 18.3369C30 17.4309 29.7882 16.6428 29.3646 15.9724C28.9479 15.302 28.3472 14.801 27.5625 14.4697C28.1458 14.1455 28.6042 13.6851 28.9375 13.0884C29.2708 12.4844 29.4375 11.825 29.4375 11.1106Q29.4375 10.2061 29.1023 9.45044Q28.9993 9.21826 28.8646 9C28.4896 8.3811 27.9688 7.89502 27.3021 7.5415C26.6423 7.18042 25.8889 7 25.0417 7Q23.9048 7 22.9616 7.42725Q22.5739 7.60303 22.2188 7.85083Q21.9089 8.06616 21.6422 8.32593Q20.8688 9.07886 20.4583 10.2043L22.1458 10.8894C22.4375 10.2117 22.8333 9.69604 23.3333 9.34253C23.8403 8.98901 24.4097 8.81226 25.0417 8.81226Q25.8797 8.81226 26.4749 9.19238Q26.6788 9.32251 26.8542 9.49731C27.3125 9.95386 27.5417 10.5654 27.5417 11.3315C27.5417 12.0608 27.3055 12.6538 26.8333 13.1106C26.368 13.5598 25.75 13.7844 24.9792 13.7844L24.0417 13.7844L24.0417 15.5967L25.0833 15.5967Q26.4429 15.5967 27.2257 16.2686Q27.2646 16.302 27.3021 16.3369C27.8368 16.8306 28.1042 17.5193 28.1042 18.4033Q28.1042 19.2732 27.7137 19.8994Q27.5338 20.1882 27.2708 20.4253C26.7153 20.9189 25.9514 21.1658 24.9792 21.1658C23.4236 21.1658 22.3264 20.3333 21.6875 18.6685L20 19.3977Q20.6458 21.1658 21.8958 22.0828ZM24.7831 25.1636L14.5806 25.1636L12.2156 28.7148L25.2424 28.7148L24.7831 25.1636ZM27.4705 28.7148L42.5984 28.7148L33.2461 25.1636L27.0112 25.1636L27.4705 28.7148Z" clip-rule="evenodd" fill="#FFFFFF" fill-opacity="1.000000" fill-rule="evenodd"/>
</svg>
