<svg width="66.856934" height="32.667236" viewBox="0 0 66.8569 32.6672" fill="none" xmlns="http://www.w3.org/2000/svg" xmlns:xlink="http://www.w3.org/1999/xlink">
	<desc>
			Created with Pixso.
	</desc>
	<defs>
		<linearGradient id="paint_linear_43_17863_0" x1="0.008738" y1="21.063694" x2="18.895330" y2="21.063694" gradientUnits="userSpaceOnUse">
			<stop stop-color="#FCA92C"/>
			<stop offset="1.000000" stop-color="#FC752C"/>
		</linearGradient>
		<linearGradient id="paint_linear_43_17867_0" x1="0.000000" y1="4.374787" x2="4.326232" y2="4.374787" gradientUnits="userSpaceOnUse">
			<stop stop-color="#FCA92C"/>
			<stop offset="1.000000" stop-color="#FC752C"/>
		</linearGradient>
	</defs>
	<path id="Subtract" d="M5.07764 14.7021C5.84961 14.4082 7.25635 14.0276 9.45752 13.9653L9.45605 13.9653C13.1206 13.8616 18.894 16.6455 18.894 23.3162C18.894 29.9871 13.1206 32.6672 9.45605 32.6672C5.79199 32.6672 0.00732422 29.9548 0.00732422 23.7942L0.00732422 9.46997L4.33203 9.46021L4.33203 14.5774L4.26807 14.5774L4.25684 23.4868L4.3291 23.4868C4.4126 26.2346 6.68701 28.4368 9.48047 28.4368C12.3267 28.4368 14.6343 26.1506 14.6343 23.3303C14.6343 20.51 12.3267 18.2239 9.48047 18.2239C7.61084 18.2239 5.97363 19.2102 5.07031 20.6863L5.07764 14.7021Z" clip-rule="evenodd" fill="url(#paint_linear_43_17863_0)" fill-opacity="1.000000" fill-rule="evenodd"/>
	<path id="Vector" d="M3.2666 0L1.05957 0C0.474121 0 0 0.644775 0 1.2251L0 7.69971C0 8.28003 0.474121 8.74951 1.05957 8.74951L3.2666 8.74951C3.85254 8.74951 4.32617 8.28003 4.32617 7.69971L4.32617 1.2251C4.32617 0.644775 3.85254 0 3.2666 0ZM4.14111 2.6394L4.14111 4.80933L3.62891 4.87524L3.62891 3.98096L4.14111 2.6394ZM3.87207 2.00439L3.45605 3.58691L0.871582 3.58691L0.454102 2.00439C0.454102 2.00439 2.12207 1.44238 3.87207 2.00439ZM0.703125 4.03833L0.703125 4.87378L0.190918 4.80933L0.190918 2.69702L0.703125 4.03833ZM0.190918 7.0564L0.190918 5.12891L0.703125 5.19336L0.703125 6.71851L0.190918 7.05762L0.190918 7.0564ZM0.483887 7.60425L0.899902 6.9834L3.48438 6.9834L3.90039 7.60425L0.483887 7.60425ZM3.62891 6.65967L3.62891 5.19482L4.14111 5.12891L4.14111 6.99731L3.62891 6.6582L3.62891 6.65967Z" fill="url(#paint_linear_43_17867_0)" fill-opacity="1.000000" fill-rule="nonzero"/>
	<path id="esh" d="M56.9966 19.9861L56.9966 9.59033L51.9976 9.59033L51.9976 32.1782L56.9966 32.1782L56.9966 24.9121C56.9966 23.9868 57.207 23.2246 57.6284 22.626C58.0679 22.009 58.7271 21.7007 59.606 21.7007Q60.4941 21.7007 61.0244 22.1367Q61.1826 22.2666 61.3086 22.4355C61.6748 22.9253 61.8579 23.7417 61.8579 24.8848L61.8579 32.1782L66.8569 32.1782L66.8569 23.5513C66.8569 21.7551 66.3994 20.3401 65.4839 19.3059C64.5864 18.2717 63.2773 17.7546 61.5562 17.7546C60.5674 17.7546 59.7158 17.936 59.0015 18.2988Q57.9302 18.8433 57.0513 19.9861L56.9966 19.9861ZM20.1074 25.2114Q20.1074 23.4968 20.6567 22.1089Q21.1855 20.8367 22.0835 19.9302Q22.165 19.8479 22.25 19.7686C22.9458 19.1152 23.7695 18.6165 24.7217 18.2717Q26.1777 17.7546 27.9082 17.7546C29.0068 17.7546 30.0229 17.918 30.9565 18.2444Q32.0977 18.614 32.9761 19.3137L32.9761 19.314Q33.1968 19.49 33.4014 19.6868Q34.4448 20.6394 35.022 22.1362Q35.626 23.6057 35.626 25.6196L35.626 26.0278L25.1064 26.0278Q25.1064 27.5647 25.875 28.3403Q26.6577 29.1301 28.2378 29.1301C28.7686 29.1301 29.2266 29.0396 29.6108 28.8582C29.9956 28.6584 30.334 28.3228 30.627 27.8511L35.4341 27.8511C35.269 28.5586 34.9761 29.2119 34.5547 29.8105C34.1519 30.3911 33.6392 30.8992 33.0166 31.3345C32.394 31.752 31.6802 32.0693 30.8745 32.2871Q29.666 32.6409 28.2378 32.6409C27.0288 32.6409 25.9214 32.4775 24.9141 32.1509C23.9253 31.8064 23.0737 31.3164 22.3599 30.6814C21.6455 30.0283 21.0869 29.248 20.6841 28.3411Q20.1074 26.9531 20.1074 25.2114ZM36.9814 31.0352L38.7944 27.5791C39.0693 27.7605 39.3711 27.9419 39.7007 28.1233C40.0488 28.2866 40.3965 28.4407 40.7446 28.5859C41.0923 28.7129 41.4404 28.8127 41.7881 28.8853C42.1362 28.9578 42.4473 28.9941 42.7222 28.9941C43.1436 28.9941 43.5098 28.9033 43.8208 28.7219C44.1504 28.5225 44.3154 28.2593 44.3154 27.9329C44.3154 27.6606 44.2144 27.4429 44.0132 27.2795C43.8301 27.1165 43.583 26.9893 43.2715 26.8987C42.9785 26.7898 42.6396 26.699 42.2554 26.6265C41.8892 26.554 41.5317 26.4722 41.1841 26.3816C40.7812 26.2727 40.3877 26.1367 40.0029 25.9734C39.6187 25.8101 39.2798 25.5923 38.9868 25.3203C38.7119 25.03 38.4829 24.676 38.2998 24.2588Q38.0527 23.6328 38.0527 22.7075Q38.0527 21.5103 38.5195 20.6121C38.8496 19.9954 39.2979 19.4783 39.8657 19.0608Q40.7173 18.4077 41.8433 18.0813C42.5938 17.8635 43.4087 17.7546 44.2876 17.7546C45.0566 17.7546 45.835 17.8271 46.6226 17.9724C47.4097 18.0994 48.1699 18.3262 48.9023 18.6526L47.2266 21.8096C46.8423 21.6099 46.4028 21.4468 45.9082 21.3196C45.4141 21.1926 44.9561 21.1292 44.5352 21.1292C44.1138 21.1292 43.7476 21.22 43.4365 21.4014Q43.1216 21.5664 43.019 21.8179Q42.9692 21.9397 42.9692 22.0818C42.9692 22.2993 43.0337 22.481 43.1616 22.626C43.3081 22.7529 43.4912 22.8618 43.7109 22.9526C43.9307 23.0432 44.1689 23.1157 44.4253 23.1702C44.6997 23.2065 44.9653 23.252 45.2217 23.3064C46.6499 23.5603 47.6846 24.041 48.3252 24.7488C48.9844 25.4563 49.314 26.3542 49.314 27.4429C49.314 28.459 49.0942 29.3025 48.6548 29.9739C48.2153 30.645 47.666 31.1804 47.0068 31.5796C46.3477 31.9604 45.6245 32.2327 44.8369 32.396C44.0679 32.5593 43.3447 32.6409 42.6675 32.6409C41.6968 32.6409 40.7261 32.5049 39.7559 32.2327C38.7852 31.9604 37.8604 31.5613 36.9814 31.0352ZM25.189 23.1702L30.9844 23.1702C30.8379 22.481 30.4897 21.9456 29.9404 21.5647Q29.5811 21.2947 29.1772 21.1465Q28.6855 20.9658 28.1279 20.9658C27.395 20.9658 26.7544 21.1565 26.2051 21.5374C25.6738 21.9185 25.3354 22.4626 25.189 23.1702Z" fill="#FFFFFF" fill-opacity="1.000000" fill-rule="evenodd"/>
</svg>
