<svg width="32" height="32" fill="none" xmlns="http://www.w3.org/2000/svg"><defs><radialGradient id="a" cx="0" cy="0" r="1" gradientUnits="userSpaceOnUse" gradientTransform="rotate(-55.376 27.916 .066) scale(25.5196)"><stop stop-color="#B13589"/><stop offset=".793" stop-color="#C62F94"/><stop offset="1" stop-color="#8A3AC8"/></radialGradient><radialGradient id="b" cx="0" cy="0" r="1" gradientUnits="userSpaceOnUse" gradientTransform="rotate(-65.136 29.766 6.89) scale(22.5942)"><stop stop-color="#E0E8B7"/><stop offset=".445" stop-color="#FB8A2E"/><stop offset=".715" stop-color="#E2425C"/><stop offset="1" stop-color="#E2425C" stop-opacity="0"/></radialGradient><radialGradient id="c" cx="0" cy="0" r="1" gradientUnits="userSpaceOnUse" gradientTransform="matrix(38.50003 -5.5 1.1764 8.23475 .5 3)"><stop offset=".157" stop-color="#406ADC"/><stop offset=".468" stop-color="#6A45BE"/><stop offset="1" stop-color="#6A45BE" stop-opacity="0"/></radialGradient></defs><path fill="none" d="M0 0h32v32H0z"/><rect x="2" y="2" rx="6" width="28" height="28" fill="url(#a)"/><rect x="2" y="2" rx="6" width="28" height="28" fill="url(#b)"/><rect x="2" y="2" rx="6" width="28" height="28" fill="url(#c)"/><path d="M6.654 9.276C6 10.56 6 12.24 6 15.6v.8c0 3.36 0 5.04.654 6.324a5.998 5.998 0 0 0 2.622 2.622C10.56 26 12.24 26 15.6 26h.8c3.36 0 5.04 0 6.324-.654a5.999 5.999 0 0 0 2.622-2.622C26 21.44 26 19.76 26 16.4v-.8c0-3.36 0-5.04-.654-6.324a5.999 5.999 0 0 0-2.622-2.622C21.44 6 19.76 6 16.4 6h-.8c-3.36 0-5.04 0-6.324.654a5.999 5.999 0 0 0-2.622 2.622ZM16.4 8h-.8c-1.713 0-2.878.001-3.778.075-.877.072-1.325.202-1.638.361a3.997 3.997 0 0 0-1.748 1.748c-.16.313-.289.761-.36 1.638C8 12.722 8 13.887 8 15.6v.8c0 1.713.001 2.878.075 3.778.072.877.201 1.325.361 1.638a3.998 3.998 0 0 0 1.748 1.748c.313.16.761.29 1.638.36.9.075 2.065.076 3.778.076h.8c1.713 0 2.878-.002 3.778-.075.877-.072 1.325-.202 1.638-.361a3.998 3.998 0 0 0 1.748-1.748c.16-.313.289-.761.36-1.638.075-.9.076-2.065.076-3.778v-.8c0-1.713-.002-2.878-.075-3.778-.072-.877-.201-1.325-.361-1.638a3.998 3.998 0 0 0-1.748-1.748c-.313-.16-.761-.29-1.638-.36C19.278 8 18.113 8 16.4 8Zm6.6 2.5a1.5 1.5 0 1 1-3 0 1.5 1.5 0 0 1 3 0ZM16 21a5 5 0 1 0 0-10 5 5 0 0 0 0 10Zm0-2a3 3 0 1 0 0-6 3 3 0 0 0 0 6Z" fill="#FFF" fill-rule="evenodd"/></svg>