<svg width="18" height="18" fill="none" xmlns="http://www.w3.org/2000/svg"><path d="M4.105 0c-.337 0-.672.051-.994.152l-.247.077C1.428.677.388 1.96.118 3.494a7.804 7.804 0 0 0 .02 2.81 14.576 14.576 0 0 0 11.559 11.558l.105.02a7.784 7.784 0 0 0 2.704 0c1.534-.27 2.817-1.31 3.265-2.746l.077-.247c.1-.322.152-.657.152-.993 0-1.62-1.426-2.819-3.038-2.819h-3.616c-1.613 0-3.038 1.2-3.038 2.819 0 .336.051.67.152.993l.077.247c.026.084.055.167.087.248a13.206 13.206 0 0 1-6.008-6.008c.081.032.164.061.248.087l.247.077c.322.101.657.152.994.152 1.619 0 2.818-1.425 2.818-3.038V3.038C6.923 1.426 5.723 0 4.105 0Z" fill="#F5A92C"/></svg>