<svg width="498" height="300" fill="none" xmlns="http://www.w3.org/2000/svg"><defs><linearGradient id="a" x1=".06" y1="150.27" x2="133.56" y2="150.27" gradientUnits="userSpaceOnUse"><stop stop-color="#FCA92C"/><stop offset="1" stop-color="#FC752C"/></linearGradient><linearGradient id="b" x1="0" y1="31.21" x2="30.58" y2="31.21" gradientUnits="userSpaceOnUse"><stop stop-color="#FCA92C"/><stop offset="1" stop-color="#FC752C"/></linearGradient></defs><path d="M35.429 105.067c5.348-2.118 15.41-4.98 31.421-5.437h-.01c25.9-.74 66.71 19.12 66.71 66.71 0 47.59-40.81 66.71-66.71 66.71-25.9 0-66.79-19.35-66.79-63.3V67.56l30.57-.07v39.91l.006-.004-.076 60.161h.047c.59 19.603 16.667 35.313 36.413 35.313 20.12 0 36.43-16.31 36.43-36.43s-16.31-36.43-36.43-36.43c-13.541 0-25.357 7.388-31.636 18.353l.055-43.296Z" clip-rule="evenodd" fill="url(#a)" fill-rule="evenodd"/><path d="M23.09 0H7.49C3.35 0 0 4.6 0 8.74v46.19c0 4.14 3.35 7.49 7.49 7.49h15.6c4.14 0 7.49-3.35 7.49-7.49V8.74C30.58 4.6 27.23 0 23.09 0Zm6.18 18.83v15.48l-3.62.47V28.4l3.62-9.57Zm-1.9-4.53-2.94 11.29H6.16L3.21 14.3s11.79-4.01 24.16 0ZM4.97 28.81v5.96l-3.62-.46V19.24l3.62 9.57ZM1.35 50.34V36.59l3.62.46v10.88l-3.62 2.42v-.01Zm2.07 3.91 2.94-4.43h18.27l2.94 4.43H3.42Zm22.23-6.74V37.06l3.62-.47v13.33l-3.62-2.42v.01Z" fill="url(#b)"/><path d="M146.05 178.6c0-8.4 1.333-16 4-22.8 2.8-6.8 6.667-12.533 11.6-17.2 5.067-4.8 11.067-8.467 18-11 7.067-2.533 14.8-3.8 23.2-3.8 8 0 15.4 1.2 22.2 3.6 6.933 2.267 12.867 5.8 17.8 10.6 5.067 4.667 9 10.667 11.8 18 2.933 7.2 4.4 15.733 4.4 25.6v3h-76.6c0 15.2 7.6 22.8 22.8 22.8 3.867 0 7.2-.667 10-2 2.8-1.467 5.267-3.933 7.4-7.4h35c-1.2 5.2-3.333 10-6.4 14.4-2.933 4.267-6.667 8-11.2 11.2-4.533 3.067-9.733 5.4-15.6 7-5.867 1.733-12.267 2.6-19.2 2.6-8.8 0-16.867-1.2-24.2-3.6-7.2-2.533-13.4-6.133-18.6-10.8-5.2-4.8-9.267-10.533-12.2-17.2-2.8-6.8-4.2-14.467-4.2-23Zm37-15h42.2c-1.067-5.067-3.6-9-7.6-11.8-3.867-2.933-8.267-4.4-13.2-4.4-5.333 0-10 1.4-14 4.2-3.867 2.8-6.333 6.8-7.4 12Zm85.87 57.8 13.2-25.4c2 1.333 4.2 2.667 6.6 4 2.534 1.2 5.067 2.333 7.6 3.4a54.414 54.414 0 0 0 7.6 2.2c2.534.533 4.8.8 6.8.8 3.067 0 5.734-.667 8-2 2.4-1.467 3.6-3.4 3.6-5.8 0-2-.733-3.6-2.2-4.8-1.333-1.2-3.133-2.133-5.4-2.8-2.133-.8-4.6-1.467-7.4-2a133.31 133.31 0 0 1-7.8-1.8c-2.933-.8-5.8-1.8-8.6-3s-5.266-2.8-7.4-4.8c-2-2.133-3.666-4.733-5-7.8-1.2-3.067-1.8-6.867-1.8-11.4 0-5.867 1.134-11 3.4-15.4 2.4-4.533 5.667-8.333 9.8-11.4 4.134-3.2 8.934-5.6 14.4-7.2 5.467-1.6 11.4-2.4 17.8-2.4 5.6 0 11.267.533 17 1.6a66.183 66.183 0 0 1 16.6 5l-12.2 23.2c-2.8-1.467-6-2.667-9.6-3.6-3.6-.933-6.933-1.4-10-1.4-3.066 0-5.733.667-8 2-2.266 1.2-3.4 2.867-3.4 5 0 1.6.467 2.933 1.4 4 1.067.933 2.4 1.733 4 2.4 1.6.667 3.334 1.2 5.2 1.6 2 .267 3.934.6 5.8 1 10.4 1.867 17.934 5.4 22.6 10.6 4.8 5.2 7.2 11.8 7.2 19.8 0 7.467-1.6 13.667-4.8 18.6-3.2 4.933-7.2 8.867-12 11.8-4.8 2.8-10.066 4.8-15.8 6-5.6 1.2-10.866 1.8-15.8 1.8-7.066 0-14.133-1-21.2-3-7.066-2-13.8-4.933-20.2-8.8ZM414.659 63.8v76.4h.4c4.267-5.6 9-9.733 14.2-12.4 5.2-2.667 11.4-4 18.6-4 12.534 0 22.067 3.8 28.6 11.4 6.667 7.6 10 18 10 31.2v63.4h-36.4v-53.6c0-8.4-1.333-14.4-4-18-2.666-3.6-6.8-5.4-12.4-5.4-6.4 0-11.2 2.267-14.4 6.8-3.066 4.4-4.6 10-4.6 16.8v53.4h-36.4v-166h36.4Z" fill="#FFF" fill-rule="evenodd"/><path d="M16.32 289.5c0 3.221-1.59 4.821-4.768 4.8H3.68c-.853 0-1.28-.427-1.28-1.28v-1.92c0-.853.427-1.28 1.28-1.28h6.72c.747 0 1.12-.427 1.12-1.28v-1.088c0-.363-.096-.672-.288-.928-.192-.256-.544-.48-1.056-.672l-4.224-1.6c-.79-.299-1.45-.619-1.984-.96a4.501 4.501 0 0 1-1.216-1.248 4.841 4.841 0 0 1-.64-1.6c-.128-.597-.192-1.291-.192-2.08v-2.304c0-3.2 1.6-4.8 4.8-4.8h4.8c3.2 0 4.8 1.6 4.8 4.8v.96c0 .853-.427 1.28-1.28 1.28h-2.08c-.853 0-1.28-.427-1.28-1.28v-.16c0-.853-.427-1.28-1.28-1.28H8c-.853 0-1.28.427-1.28 1.28v1.44c0 .491.096.896.288 1.216.213.299.608.565 1.184.8l4.16 1.6c1.344.512 2.336 1.205 2.976 2.08.661.875.992 2.059.992 3.552v1.952Zm16.33 3.68c0 .747-.384 1.12-1.152 1.12H29.93c-.704 0-1.11-.373-1.216-1.12l-.064-.032c-.235.427-.544.725-.928.896-.363.171-.832.256-1.408.256h-2.176c-2.859.021-4.288-1.429-4.288-4.352v-1.984c0-1.451.352-2.517 1.056-3.2.725-.704 1.813-1.067 3.264-1.088h3.008c.768 0 1.152-.384 1.152-1.152v-1.888c0-.768-.384-1.152-1.152-1.152h-1.664c-.768 0-1.152.384-1.152 1.152v.064c-.043.768-.427 1.152-1.152 1.152h-1.888c-.768 0-1.152-.384-1.152-1.152v-.64c0-2.88 1.44-4.32 4.32-4.32h3.84c1.472 0 2.56.352 3.264 1.056.704.704 1.056 1.792 1.056 3.264v13.12Zm-4.32-3.776v-2.176h-3.008c-.363.021-.65.128-.864.32-.192.192-.288.469-.288.832v.992c0 .363.085.651.256.864.17.192.416.288.736.288h2.016c.768 0 1.152-.373 1.152-1.12Zm15.36-16.736c0 .768-.384 1.152-1.152 1.152h-.928c-.747 0-1.12.384-1.12 1.152v1.088h1.76c.747 0 1.12.373 1.12 1.12v1.6c0 .747-.373 1.12-1.12 1.12h-1.76v13.28c0 .747-.373 1.12-1.12 1.12h-2.08c-.747 0-1.12-.373-1.12-1.12V279.9h-.128c-.768 0-1.152-.384-1.152-1.152v-1.536c0-.363.096-.64.288-.832.213-.213.501-.32.864-.32h.128v-1.76c0-2.88 1.45-4.32 4.352-4.32h2.016c.768 0 1.152.384 1.152 1.152v1.536Zm14.71 12.576c0 .747-.373 1.12-1.12 1.12h-7.36v3.072c0 .363.096.651.288.864.213.192.501.288.864.288h1.696c.747 0 1.12-.384 1.12-1.152l.032-.064c0-.363.096-.64.288-.832.213-.213.501-.32.864-.32h1.856c.768 0 1.152.384 1.152 1.152v.608c0 2.88-1.44 4.32-4.32 4.32h-3.84c-2.88 0-4.32-1.44-4.32-4.32v-9.92c0-2.859 1.44-4.299 4.32-4.32h4.16c2.88 0 4.32 1.451 4.32 4.352v5.152Zm-4.32-2.432v-2.208c0-.363-.107-.64-.32-.832a1.087 1.087 0 0 0-.8-.32h-1.92c-.747 0-1.12.373-1.12 1.12v2.24h4.16Zm15.52 10.336c0 .768-.384 1.152-1.152 1.152h-2.016c-2.901 0-4.352-1.44-4.352-4.32V279.9h-.128c-.363 0-.65-.096-.864-.288-.192-.213-.288-.501-.288-.864v-1.536c0-.768.384-1.152 1.152-1.152h.128v-3.2c0-.747.373-1.12 1.12-1.12h2.08c.747 0 1.12.373 1.12 1.12v3.2h1.76c.747 0 1.12.373 1.12 1.12v1.6c0 .747-.373 1.12-1.12 1.12H66.4v9.408c0 .768.373 1.152 1.12 1.152h.928c.768 0 1.152.384 1.152 1.152v1.536Zm15.366-16.544c0 .149-.021.331-.064.544L79.59 295.74a17.236 17.236 0 0 1-.608 1.856c-.213.555-.48 1.013-.8 1.376a2.618 2.618 0 0 1-1.152.8c-.47.192-1.066.288-1.792.288h-2.016c-.768 0-1.152-.384-1.152-1.152v-1.536c0-.768.384-1.152 1.152-1.152h1.312c.896 0 1.43-.395 1.6-1.184l.128-.576-4.992-17.312a2.754 2.754 0 0 1-.064-.512c0-.299.086-.523.256-.672.17-.149.406-.224.704-.224h2.368c.406 0 .683.107.832.32.15.192.267.469.352.832l2.368 9.888 2.368-9.888c.086-.363.203-.64.352-.832.15-.213.438-.32.864-.32h2.336c.299 0 .534.075.704.224.17.149.256.363.256.64Zm6.02 15.808c0 .768-.128 1.344-.384 1.728l-1.92 3.04c-.405.661-.938.779-1.6.352-.661-.427-.79-.96-.384-1.6l1.088-1.632h-.32c-.853 0-1.28-.427-1.28-1.28v-1.92c0-.853.427-1.28 1.28-1.28h2.24c.854 0 1.28.427 1.28 1.28v1.312Zm23.352-11.712c0 .768-.385 1.152-1.152 1.152h-1.857c-.767 0-1.152-.384-1.152-1.152l-.031-.064c0-.768-.374-1.152-1.121-1.152h-2.016c-.767 0-1.152.384-1.152 1.152v8.672c0 .768.385 1.152 1.152 1.152h5.761c.767 0 1.152.384 1.152 1.152v1.536c0 .768-.385 1.152-1.152 1.152h-6.88c-2.881 0-4.32-1.44-4.32-4.32l-.033-9.92c0-2.88 1.441-4.32 4.32-4.32h4.161c2.879 0 4.32 1.44 4.32 4.32v.64Zm15.687 9.28c0 2.88-1.44 4.32-4.32 4.32h-4.16c-2.88 0-4.32-1.44-4.32-4.32v-9.92c0-2.88 1.44-4.32 4.32-4.32h4.16c2.88 0 4.32 1.44 4.32 4.32v9.92Zm-4.288-.544v-8.8c0-.789-.384-1.184-1.152-1.184h-1.888c-.768 0-1.152.384-1.152 1.152v8.864c0 .747.384 1.12 1.152 1.12h1.888c.768 0 1.152-.384 1.152-1.152Zm27.968 3.744c0 .747-.373 1.12-1.12 1.12h-2.08c-.747 0-1.12-.373-1.12-1.12v-12.544c0-.747-.373-1.12-1.12-1.12h-1.536c-.747 0-1.12.373-1.12 1.12v12.544c0 .747-.373 1.12-1.12 1.12h-2.048c-.747 0-1.12-.373-1.12-1.12v-12.544c0-.747-.373-1.12-1.12-1.12h-1.536c-.747 0-1.12.373-1.12 1.12v12.544c0 .747-.373 1.12-1.12 1.12h-2.08c-.747 0-1.12-.373-1.12-1.12v-16.32c0-.747.373-1.12 1.12-1.12h2.08c.747 0 1.12.373 1.12 1.12v.096l.064.032c.491-.832 1.323-1.248 2.496-1.248h1.536c.875 0 1.536.128 1.984.384.469.256.864.672 1.184 1.248h.064c.32-.576.725-.992 1.216-1.248s1.077-.384 1.76-.384h1.536c2.88 0 4.32 1.44 4.32 4.32v13.12Zm11.048-20.512c0 .768-.385 1.152-1.153 1.152h-.927c-.747 0-1.12.384-1.12 1.152v1.088h1.759c.747 0 1.12.373 1.12 1.12v1.6c0 .747-.373 1.12-1.12 1.12h-1.759v13.28c0 .747-.374 1.12-1.121 1.12h-2.08c-.746 0-1.12-.373-1.12-1.12V279.9h-.127c-.768 0-1.153-.384-1.153-1.152v-1.536c0-.363.096-.64.288-.832.214-.213.502-.32.865-.32h.127v-1.76c0-2.88 1.451-4.32 4.353-4.32h2.015c.768 0 1.153.384 1.153 1.152v1.536Zm14.709 17.312c0 2.88-1.439 4.32-4.319 4.32h-4.161c-2.88 0-4.319-1.44-4.319-4.32v-9.92c0-2.88 1.439-4.32 4.319-4.32h4.161c2.88 0 4.319 1.44 4.319 4.32v9.92Zm-4.288-.544v-8.8c0-.789-.384-1.184-1.151-1.184h-1.888c-.768 0-1.153.384-1.153 1.152v8.864c0 .747.385 1.12 1.153 1.12h1.888c.767 0 1.151-.384 1.151-1.152Zm17.409-10.976c0 .747-.374 1.12-1.121 1.12h-3.36c-.746 0-1.12.373-1.12 1.12v12.48c0 .747-.373 1.12-1.119 1.12h-2.08c-.747 0-1.12-.373-1.12-1.12v-16.32c0-.747.373-1.12 1.12-1.12h2.08c.746 0 1.119.373 1.119 1.12v.096l.064.032c.491-.832 1.323-1.248 2.496-1.248h1.92c.747 0 1.121.373 1.121 1.12v1.6Zm9.923 14.688c0 .768-.384 1.152-1.152 1.152h-2.016c-2.901 0-4.352-1.44-4.352-4.32V279.9h-.128c-.362 0-.65-.096-.864-.288-.192-.213-.288-.501-.288-.864v-1.536c0-.768.384-1.152 1.152-1.152h.128v-3.2c0-.747.374-1.12 1.12-1.12h2.08c.747 0 1.12.373 1.12 1.12v3.2h1.76c.747 0 1.12.373 1.12 1.12v1.6c0 .747-.373 1.12-1.12 1.12h-1.76v9.408c0 .768.374 1.152 1.12 1.152h.928c.768 0 1.152.384 1.152 1.152v1.536Z" fill="#F7931E" fill-rule="evenodd"/></svg>